<svg viewBox="0 0 800 600" xmlns="http://www.w3.org/2000/svg" preserveAspectRatio="xMidYMid slice" role="img" aria-label="Suspended grid ceiling">
  <defs>
    <linearGradient id="bg5" x1="0" y1="0" x2="0" y2="1"><stop offset="0" stop-color="#16367c"/><stop offset="1" stop-color="#0b1f4a"/></linearGradient>
    <radialGradient id="gl5" cx="50%" cy="12%" r="65%"><stop offset="0" stop-color="#f5a833" stop-opacity="0.26"/><stop offset="1" stop-color="#f5a833" stop-opacity="0"/></radialGradient>
    <radialGradient id="d5" cx="50%" cy="50%" r="50%"><stop offset="0" stop-color="#fff7e6" stop-opacity="0.95"/><stop offset="0.5" stop-color="#f5a833" stop-opacity="0.5"/><stop offset="1" stop-color="#f5a833" stop-opacity="0"/></radialGradient>
  </defs>
  <rect width="800" height="600" fill="url(#bg5)"/><rect width="800" height="600" fill="url(#gl5)"/>
  <!-- suspended grid tiles -->
  <g stroke="#ffffff" stroke-opacity="0.12" stroke-width="2" fill="none">
    <line x1="110" y1="90" x2="690" y2="90"/><line x1="110" y1="190" x2="690" y2="190"/><line x1="110" y1="290" x2="690" y2="290"/><line x1="110" y1="390" x2="690" y2="390"/>
    <line x1="110" y1="90" x2="110" y2="390"/><line x1="255" y1="90" x2="255" y2="390"/><line x1="400" y1="90" x2="400" y2="390"/><line x1="545" y1="90" x2="545" y2="390"/><line x1="690" y1="90" x2="690" y2="390"/>
  </g>
  <g><circle cx="327" cy="140" r="12" fill="url(#d5)"/><circle cx="472" cy="240" r="12" fill="url(#d5)"/><g fill="#fff7e6"><circle cx="327" cy="140" r="2.5"/><circle cx="472" cy="240" r="2.5"/></g></g>
  <g transform="translate(650,34) scale(0.5)"><rect x="92" y="40" width="7" height="20" rx="1" fill="#f5a833"/><path d="M50 76 L80 22 L110 76" stroke="#f5a833" stroke-width="9" stroke-linejoin="round" stroke-linecap="round" fill="none"/><path d="M10 76 L42 26 L74 76" stroke="#ffffff" stroke-width="9" stroke-linejoin="round" stroke-linecap="round" fill="none"/><rect x="12" y="88" width="96" height="8" rx="1.5" fill="#f5a833"/></g>
  <g font-family="Poppins, Arial, sans-serif"><text x="90" y="515" fill="#ffffff" font-size="30" font-weight="700">Suspended / Drop Ceiling</text><text x="90" y="548" fill="#f5a833" font-size="16" font-weight="600" letter-spacing="2">ALSTYLE CONSTRUCTION · PHOTO COMING SOON</text></g>
</svg>
