<svg viewBox="0 0 800 600" xmlns="http://www.w3.org/2000/svg" preserveAspectRatio="xMidYMid slice" role="img" aria-label="Living room LED cove ceiling">
  <defs>
    <linearGradient id="bg1" x1="0" y1="0" x2="0" y2="1"><stop offset="0" stop-color="#16367c"/><stop offset="1" stop-color="#0b1f4a"/></linearGradient>
    <radialGradient id="gl1" cx="50%" cy="14%" r="65%"><stop offset="0" stop-color="#b07cff" stop-opacity="0.4"/><stop offset="1" stop-color="#b07cff" stop-opacity="0"/></radialGradient>
    <radialGradient id="d1" cx="50%" cy="50%" r="50%"><stop offset="0" stop-color="#fff7e6" stop-opacity="0.95"/><stop offset="0.5" stop-color="#f5a833" stop-opacity="0.5"/><stop offset="1" stop-color="#f5a833" stop-opacity="0"/></radialGradient>
  </defs>
  <rect width="800" height="600" fill="url(#bg1)"/><rect width="800" height="600" fill="url(#gl1)"/>
  <g fill="none" stroke="#ffffff" stroke-opacity="0.10"><rect x="90" y="70" width="620" height="380" rx="8"/><rect x="150" y="120" width="500" height="280" rx="6"/></g>
  <rect x="150" y="120" width="500" height="280" rx="6" fill="none" stroke="#b07cff" stroke-opacity="0.7" stroke-width="3"/>
  <g><circle cx="260" cy="95" r="18" fill="url(#d1)"/><circle cx="400" cy="95" r="18" fill="url(#d1)"/><circle cx="540" cy="95" r="18" fill="url(#d1)"/><g fill="#fff7e6"><circle cx="260" cy="95" r="3"/><circle cx="400" cy="95" r="3"/><circle cx="540" cy="95" r="3"/></g></g>
  <g transform="translate(650,34) scale(0.5)"><rect x="92" y="40" width="7" height="20" rx="1" fill="#f5a833"/><path d="M50 76 L80 22 L110 76" stroke="#f5a833" stroke-width="9" stroke-linejoin="round" stroke-linecap="round" fill="none"/><path d="M10 76 L42 26 L74 76" stroke="#ffffff" stroke-width="9" stroke-linejoin="round" stroke-linecap="round" fill="none"/><rect x="12" y="88" width="96" height="8" rx="1.5" fill="#f5a833"/></g>
  <g font-family="Poppins, Arial, sans-serif"><text x="90" y="515" fill="#ffffff" font-size="30" font-weight="700">Living Room · LED Cove Ceiling</text><text x="90" y="548" fill="#f5a833" font-size="16" font-weight="600" letter-spacing="2">ALSTYLE CONSTRUCTION · PHOTO COMING SOON</text></g>
</svg>
