<svg viewBox="0 0 800 600" xmlns="http://www.w3.org/2000/svg" preserveAspectRatio="xMidYMid slice" role="img" aria-label="Modern kitchen ceiling with recessed lighting">
  <defs>
    <linearGradient id="bg3" x1="0" y1="0" x2="0" y2="1"><stop offset="0" stop-color="#16367c"/><stop offset="1" stop-color="#0b1f4a"/></linearGradient>
    <radialGradient id="gl3" cx="50%" cy="12%" r="65%"><stop offset="0" stop-color="#f5a833" stop-opacity="0.30"/><stop offset="1" stop-color="#f5a833" stop-opacity="0"/></radialGradient>
    <radialGradient id="d3" cx="50%" cy="50%" r="50%"><stop offset="0" stop-color="#fff7e6" stop-opacity="0.95"/><stop offset="0.5" stop-color="#f5a833" stop-opacity="0.5"/><stop offset="1" stop-color="#f5a833" stop-opacity="0"/></radialGradient>
  </defs>
  <rect width="800" height="600" fill="url(#bg3)"/><rect width="800" height="600" fill="url(#gl3)"/>
  <g fill="none" stroke="#ffffff" stroke-opacity="0.10"><rect x="90" y="70" width="620" height="380" rx="8"/></g>
  <!-- even grid of downlights -->
  <g><circle cx="230" cy="150" r="15" fill="url(#d3)"/><circle cx="400" cy="150" r="15" fill="url(#d3)"/><circle cx="570" cy="150" r="15" fill="url(#d3)"/><circle cx="230" cy="300" r="15" fill="url(#d3)"/><circle cx="400" cy="300" r="15" fill="url(#d3)"/><circle cx="570" cy="300" r="15" fill="url(#d3)"/>
  <g fill="#fff7e6"><circle cx="230" cy="150" r="3"/><circle cx="400" cy="150" r="3"/><circle cx="570" cy="150" r="3"/><circle cx="230" cy="300" r="3"/><circle cx="400" cy="300" r="3"/><circle cx="570" cy="300" r="3"/></g></g>
  <g transform="translate(650,34) scale(0.5)"><rect x="92" y="40" width="7" height="20" rx="1" fill="#f5a833"/><path d="M50 76 L80 22 L110 76" stroke="#f5a833" stroke-width="9" stroke-linejoin="round" stroke-linecap="round" fill="none"/><path d="M10 76 L42 26 L74 76" stroke="#ffffff" stroke-width="9" stroke-linejoin="round" stroke-linecap="round" fill="none"/><rect x="12" y="88" width="96" height="8" rx="1.5" fill="#f5a833"/></g>
  <g font-family="Poppins, Arial, sans-serif"><text x="90" y="515" fill="#ffffff" font-size="30" font-weight="700">Kitchen · Recessed Lighting</text><text x="90" y="548" fill="#f5a833" font-size="16" font-weight="600" letter-spacing="2">ALSTYLE CONSTRUCTION · PHOTO COMING SOON</text></g>
</svg>
