<svg viewBox="0 0 800 600" xmlns="http://www.w3.org/2000/svg" preserveAspectRatio="xMidYMid slice" role="img" aria-label="Hallway bulkhead ceiling with downlights">
  <defs>
    <linearGradient id="bg2" x1="0" y1="0" x2="0" y2="1"><stop offset="0" stop-color="#16367c"/><stop offset="1" stop-color="#0b1f4a"/></linearGradient>
    <radialGradient id="gl2" cx="50%" cy="12%" r="65%"><stop offset="0" stop-color="#f5a833" stop-opacity="0.32"/><stop offset="1" stop-color="#f5a833" stop-opacity="0"/></radialGradient>
    <radialGradient id="d2" cx="50%" cy="50%" r="50%"><stop offset="0" stop-color="#fff7e6" stop-opacity="0.95"/><stop offset="0.5" stop-color="#f5a833" stop-opacity="0.5"/><stop offset="1" stop-color="#f5a833" stop-opacity="0"/></radialGradient>
  </defs>
  <rect width="800" height="600" fill="url(#bg2)"/><rect width="800" height="600" fill="url(#gl2)"/>
  <!-- perspective bulkhead -->
  <g fill="none" stroke="#ffffff" stroke-opacity="0.10"><polygon points="120,80 680,80 560,430 240,430"/><polygon points="220,150 580,150 505,400 295,400"/></g>
  <g><circle cx="400" cy="120" r="16" fill="url(#d2)"/><circle cx="400" cy="200" r="13" fill="url(#d2)"/><circle cx="400" cy="270" r="10" fill="url(#d2)"/><g fill="#fff7e6"><circle cx="400" cy="120" r="3"/><circle cx="400" cy="200" r="2.5"/><circle cx="400" cy="270" r="2"/></g></g>
  <g transform="translate(650,34) scale(0.5)"><rect x="92" y="40" width="7" height="20" rx="1" fill="#f5a833"/><path d="M50 76 L80 22 L110 76" stroke="#f5a833" stroke-width="9" stroke-linejoin="round" stroke-linecap="round" fill="none"/><path d="M10 76 L42 26 L74 76" stroke="#ffffff" stroke-width="9" stroke-linejoin="round" stroke-linecap="round" fill="none"/><rect x="12" y="88" width="96" height="8" rx="1.5" fill="#f5a833"/></g>
  <g font-family="Poppins, Arial, sans-serif"><text x="90" y="515" fill="#ffffff" font-size="30" font-weight="700">Hallway · Bulkhead &amp; Downlights</text><text x="90" y="548" fill="#f5a833" font-size="16" font-weight="600" letter-spacing="2">ALSTYLE CONSTRUCTION · PHOTO COMING SOON</text></g>
</svg>
